<?xml version="1.0" encoding="UTF-8"?>
<!DOCTYPE svg PUBLIC "-//W3C//DTD SVG 1.1//EN" "http://www.w3.org/Graphics/SVG/1.1/DTD/svg11.dtd">
<svg xmlns="http://www.w3.org/2000/svg" version="1.1" width="1139px" height="1139px" style="shape-rendering:geometricPrecision; text-rendering:geometricPrecision; image-rendering:optimizeQuality; fill-rule:evenodd; clip-rule:evenodd" xmlns:xlink="http://www.w3.org/1999/xlink">
<g><path style="opacity:1" fill="#fefefe" d="M -0.5,-0.5 C 379.167,-0.5 758.833,-0.5 1138.5,-0.5C 1138.5,379.167 1138.5,758.833 1138.5,1138.5C 758.833,1138.5 379.167,1138.5 -0.5,1138.5C -0.5,758.833 -0.5,379.167 -0.5,-0.5 Z"/></g>
<g><path style="opacity:1" fill="#95d1cc" d="M 542.5,15.5 C 709.89,11.7652 852.39,68.7652 970,186.5C 1101.88,331.216 1149.21,500.216 1112,693.5C 1078.81,833.269 1004.31,945.102 888.5,1029C 765.96,1112.49 630.96,1144.15 483.5,1124C 336.323,1098.87 216.823,1028.03 125,911.5C 32.8833,786.713 -3.44998,647.047 16,492.5C 45.7332,316.902 136.233,183.069 287.5,91C 366.562,45.4948 451.562,20.3281 542.5,15.5 Z"/></g>
<g><path style="opacity:1" fill="#d3eae6" d="M 542.5,55.5 C 707.169,51.7847 845.002,110.118 956,230.5C 1057.88,350.253 1099.21,488.587 1080,645.5C 1054.11,803.239 974.608,925.406 841.5,1012C 713.293,1088.71 576.626,1108.71 431.5,1072C 294.786,1031.91 190.286,950.747 118,828.5C 50.2158,705.118 33.5492,575.118 68,438.5C 113.443,283.058 209.277,170.558 355.5,101C 415.281,74.9709 477.614,59.8042 542.5,55.5 Z"/></g>
<g><path style="opacity:1" fill="#1b1b1b" d="M 611.5,95.5 C 621.343,98.5038 625.01,105.17 622.5,115.5C 624.805,125.898 621.139,132.898 611.5,136.5C 608.167,136.5 604.833,136.5 601.5,136.5C 601.5,144.833 601.5,153.167 601.5,161.5C 598.167,161.5 594.833,161.5 591.5,161.5C 591.5,153.833 591.5,146.167 591.5,138.5C 591.5,132.5 591.5,126.5 591.5,120.5C 592.493,112.35 592.826,104.017 592.5,95.5C 598.833,95.5 605.167,95.5 611.5,95.5 Z"/></g>
<g><path style="opacity:1" fill="#1d1d1d" d="M 552.5,96.5 C 555.5,96.5 558.5,96.5 561.5,96.5C 561.963,99.4824 562.296,102.482 562.5,105.5C 557.851,106.065 553.184,106.565 548.5,107C 545.651,109.559 544.817,112.726 546,116.5C 546.65,123.641 550.483,126.308 557.5,124.5C 557.187,121.753 557.52,119.086 558.5,116.5C 561.758,115.583 565.091,115.249 568.5,115.5C 568.5,117.833 568.5,120.167 568.5,122.5C 569.5,122.5 570.5,122.5 571.5,122.5C 571.677,127.118 571.01,131.618 569.5,136C 570.691,143.795 571.525,151.628 572,159.5C 572.374,160.416 572.874,161.25 573.5,162C 570.294,162.296 567.128,162.796 564,163.5C 562.523,162.556 561.523,161.223 561,159.5C 555.978,166.17 549.978,167.17 543,162.5C 539.476,156.891 537.976,150.724 538.5,144C 537.427,138.277 539.093,133.61 543.5,130C 536.034,123.931 533.534,116.098 536,106.5C 539.458,99.6917 544.958,96.3584 552.5,96.5 Z"/></g>
<g><path style="opacity:1" fill="#1e1e1e" d="M 630.5,95.5 C 638.596,96.0475 646.596,97.2142 654.5,99C 657.728,100.563 659.895,103.063 661,106.5C 661.889,114.169 660.722,121.502 657.5,128.5C 656.019,129.48 654.685,130.647 653.5,132C 655.617,133.731 657.117,135.898 658,138.5C 658.12,147.495 657.953,156.495 657.5,165.5C 654.193,164.949 650.86,164.616 647.5,164.5C 647.666,155.827 647.5,147.16 647,138.5C 644.096,136.773 640.93,136.107 637.5,136.5C 636.834,145.485 636.501,154.485 636.5,163.5C 633.091,163.751 629.758,163.417 626.5,162.5C 626.167,160.667 625.833,158.833 625.5,157C 627.569,136.528 629.236,116.028 630.5,95.5 Z"/></g>
<g><path style="opacity:1" fill="#1e1e1e" d="M 671.5,99.5 C 681.132,101.272 690.799,102.939 700.5,104.5C 699.593,107.421 699.26,110.421 699.5,113.5C 693.075,113.04 686.742,112.04 680.5,110.5C 679.289,116.771 678.622,123.104 678.5,129.5C 682.833,130.167 687.167,130.833 691.5,131.5C 691.492,134.545 691.159,137.545 690.5,140.5C 686.077,140.374 681.744,139.707 677.5,138.5C 676.914,138.709 676.414,139.043 676,139.5C 674.839,145.8 674.006,152.134 673.5,158.5C 678.875,159.007 684.208,159.84 689.5,161C 690.395,164.095 690.395,167.262 689.5,170.5C 680.17,169.167 670.837,167.834 661.5,166.5C 664.751,144.156 668.085,121.823 671.5,99.5 Z"/></g>
<g><path style="opacity:1" fill="#1d1c1c" d="M 507.5,102.5 C 508.833,102.5 510.167,102.5 511.5,102.5C 511.704,105.518 512.037,108.518 512.5,111.5C 509.834,111.933 507.168,112.433 504.5,113C 503.422,113.674 502.755,114.674 502.5,116C 506.109,134.214 509.776,152.381 513.5,170.5C 510.252,170.901 507.085,171.568 504,172.5C 500.023,154.113 495.856,135.779 491.5,117.5C 487.88,116.707 484.213,116.707 480.5,117.5C 480.037,114.518 479.704,111.518 479.5,108.5C 489.007,106.769 498.34,104.769 507.5,102.5 Z"/></g>
<g><path style="opacity:1" fill="#d0e6e2" d="M 602.5,104.5 C 611.236,103.429 614.57,107.263 612.5,116C 614.242,124.418 610.909,128.252 602.5,127.5C 602.5,119.833 602.5,112.167 602.5,104.5 Z"/></g>
<g><path style="opacity:1" fill="#cfe5e2" d="M 640.5,106.5 C 643.649,106.211 646.649,106.711 649.5,108C 650.529,113.459 650.363,118.959 649,124.5C 646.174,126.34 643.007,127.006 639.5,126.5C 639.391,119.804 639.724,113.137 640.5,106.5 Z"/></g>
<g><path style="opacity:1" fill="#1d1d1c" d="M 706.5,105.5 C 709.833,106.167 713.167,106.833 716.5,107.5C 715.093,124.84 713.926,142.173 713,159.5C 719.529,144.247 725.862,128.914 732,113.5C 735.095,112.605 738.262,112.605 741.5,113.5C 733.739,134.361 725.406,155.028 716.5,175.5C 716,175.833 715.5,176.167 715,176.5C 710.575,175.102 706.075,174.102 701.5,173.5C 702.693,150.798 704.36,128.131 706.5,105.5 Z"/></g>
<g><path style="opacity:1" fill="#1d1d1d" d="M 466.5,111.5 C 469.547,110.855 471.713,111.855 473,114.5C 479.305,134.724 485.138,155.057 490.5,175.5C 487.656,176.058 484.822,176.725 482,177.5C 481.167,177.167 480.333,176.833 479.5,176.5C 471.082,163.334 462.916,150 455,136.5C 459.243,151.742 463.41,167.075 467.5,182.5C 464.687,182.548 462.021,183.215 459.5,184.5C 452.737,163.378 446.071,142.211 439.5,121C 443.576,118.64 447.909,117.307 452.5,117C 459.208,128.25 466.041,139.417 473,150.5C 469.847,137.89 466.681,125.223 463.5,112.5C 464.791,112.737 465.791,112.404 466.5,111.5 Z"/></g>
<g><path style="opacity:1" fill="#484c4b" d="M 611.5,95.5 C 605.167,95.5 598.833,95.5 592.5,95.5C 592.826,104.017 592.493,112.35 591.5,120.5C 591.5,111.833 591.5,103.167 591.5,94.5C 598.354,94.176 605.021,94.5093 611.5,95.5 Z"/></g>
<g><path style="opacity:1" fill="#1d1d1d" d="M 749.5,116.5 C 758.659,119.441 767.659,122.775 776.5,126.5C 775.215,129.021 774.548,131.687 774.5,134.5C 768.928,133.143 763.428,131.477 758,129.5C 757.228,129.645 756.561,129.978 756,130.5C 754.068,135.462 752.235,140.462 750.5,145.5C 754.372,148.128 758.705,149.795 763.5,150.5C 763.309,154.074 762.309,157.407 760.5,160.5C 756.197,159.122 752.03,157.456 748,155.5C 745.45,161.145 743.283,166.979 741.5,173C 741.645,173.772 741.978,174.439 742.5,175C 747.713,177.017 753.046,178.517 758.5,179.5C 757.256,182.727 756.09,186.061 755,189.5C 746.925,186.475 738.758,183.641 730.5,181C 729.484,180.481 728.818,179.647 728.5,178.5C 735.506,157.815 742.506,137.149 749.5,116.5 Z"/></g>
<g><path style="opacity:1" fill="#1d1c1c" d="M 429.5,123.5 C 431.609,125.89 433.276,128.723 434.5,132C 428.477,134.108 422.81,136.775 417.5,140C 419.738,145.551 422.072,151.051 424.5,156.5C 428.5,154.833 432.5,153.167 436.5,151.5C 438.671,153.483 440.005,155.983 440.5,159C 436.354,161.575 432.021,163.908 427.5,166C 430.074,171.893 432.74,177.726 435.5,183.5C 440.627,181.402 445.794,179.402 451,177.5C 453.012,179.342 454.178,181.675 454.5,184.5C 454.182,185.647 453.516,186.481 452.5,187C 444.57,189.976 436.736,193.142 429,196.5C 420.695,176.056 412.528,155.556 404.5,135C 405.444,133.523 406.777,132.523 408.5,132C 415.8,129.629 422.8,126.796 429.5,123.5 Z"/></g>
<g><path style="opacity:1" fill="#1d1d1c" d="M 785.5,129.5 C 789.608,130.469 793.441,132.136 797,134.5C 795.667,147.167 794.333,159.833 793,172.5C 797.562,161.044 802.896,150.044 809,139.5C 811.56,140.53 814.06,141.697 816.5,143C 807.282,162.649 798.449,182.483 790,202.5C 789.439,203.022 788.772,203.355 788,203.5C 785.44,202.47 782.94,201.303 780.5,200C 779.903,198.938 779.57,197.772 779.5,196.5C 782.164,181.845 784.33,167.179 786,152.5C 779.667,166.5 773.333,180.5 767,194.5C 764.214,192.858 761.381,191.358 758.5,190C 767.915,170.004 776.915,149.837 785.5,129.5 Z"/></g>
<g><path style="opacity:1" fill="#c9dfdb" d="M 552.5,133.5 C 554.833,133.5 557.167,133.5 559.5,133.5C 559.935,139.842 560.102,146.175 560,152.5C 556.667,156.5 553.333,156.5 550,152.5C 548.919,147.53 548.586,142.53 549,137.5C 550.102,136.051 551.269,134.718 552.5,133.5 Z"/></g>
<g><path style="opacity:1" fill="#909f9c" d="M 611.5,136.5 C 608.713,137.477 605.713,137.81 602.5,137.5C 602.5,145.833 602.5,154.167 602.5,162.5C 598.5,162.5 594.5,162.5 590.5,162.5C 590.174,154.316 590.508,146.316 591.5,138.5C 591.5,146.167 591.5,153.833 591.5,161.5C 594.833,161.5 598.167,161.5 601.5,161.5C 601.5,153.167 601.5,144.833 601.5,136.5C 604.833,136.5 608.167,136.5 611.5,136.5 Z"/></g>
<g><path style="opacity:1" fill="#1d1d1d" d="M 392.5,138.5 C 393.376,138.369 394.043,138.702 394.5,139.5C 404.047,158.76 413.713,177.927 423.5,197C 423.355,197.772 423.022,198.439 422.5,199C 420.254,200.039 418.087,201.206 416,202.5C 409.333,189.833 402.667,177.167 396,164.5C 399.829,177.826 403.995,191.159 408.5,204.5C 406.29,207.605 403.29,209.105 399.5,209C 390.282,197.449 381.448,185.616 373,173.5C 379.154,186.811 385.654,200.144 392.5,213.5C 390.401,214.965 388.234,216.299 386,217.5C 385.228,217.355 384.561,217.022 384,216.5C 374.031,197.396 364.198,178.229 354.5,159C 358.389,156.134 362.556,153.634 367,151.5C 376.333,164.167 385.667,176.833 395,189.5C 390.9,174.698 386.066,160.031 380.5,145.5C 384.563,143.14 388.563,140.807 392.5,138.5 Z"/></g>
<g><path style="opacity:1" fill="#1d1d1d" d="M 823.5,146.5 C 833.132,151.316 842.465,156.649 851.5,162.5C 850.253,165.329 848.753,167.995 847,170.5C 844.084,168.959 841.251,167.293 838.5,165.5C 837.522,165.977 836.689,166.643 836,167.5C 827.667,182.5 819.333,197.5 811,212.5C 810.261,213.574 809.261,214.241 808,214.5C 805.222,213.198 802.722,211.532 800.5,209.5C 809.333,193.833 818.167,178.167 827,162.5C 827.667,161.5 827.667,160.5 827,159.5C 824.381,157.779 821.881,155.946 819.5,154C 820.457,151.251 821.79,148.751 823.5,146.5 Z"/></g>
<g><path style="opacity:1" fill="#1d1d1c" d="M 346.5,162.5 C 348.822,164.586 350.822,167.086 352.5,170C 349.64,172.36 346.64,174.527 343.5,176.5C 353.958,192.582 364.291,208.749 374.5,225C 371.582,226.709 368.748,228.542 366,230.5C 355.303,214.635 344.803,198.635 334.5,182.5C 331.661,184.42 328.661,186.087 325.5,187.5C 323.6,185.381 321.934,183.047 320.5,180.5C 329.196,174.49 337.862,168.49 346.5,162.5 Z"/></g>
<g><path style="opacity:1" fill="#1e1d1d" d="M 857.5,166.5 C 860.472,168.322 863.472,170.156 866.5,172C 854.113,190.616 841.613,209.116 829,227.5C 825.928,226.047 823.095,224.213 820.5,222C 832.968,203.557 845.301,185.057 857.5,166.5 Z"/></g>
<g><path style="opacity:1" fill="#1d1d1c" d="M 872.5,182.5 C 883.997,181.57 891.33,186.57 894.5,197.5C 893.345,203.477 890.845,208.81 887,213.5C 879.544,223.291 871.711,232.791 863.5,242C 855.173,246.237 848.006,244.737 842,237.5C 838.591,232.807 837.925,227.807 840,222.5C 848.423,210.655 857.09,198.988 866,187.5C 868.352,185.97 870.519,184.303 872.5,182.5 Z"/></g>
<g><path style="opacity:1" fill="#1d1d1d" d="M 306.5,189.5 C 323.578,204.406 340.244,219.906 356.5,236C 354.017,238.406 351.35,240.573 348.5,242.5C 345.683,240.183 343.016,237.683 340.5,235C 339.092,234.685 337.759,235.018 336.5,236C 334.353,238.237 332.02,240.237 329.5,242C 331.43,245.194 333.097,248.527 334.5,252C 332.729,254.487 330.562,256.654 328,258.5C 317.04,238.747 306.206,218.913 295.5,199C 299.359,195.968 303.026,192.802 306.5,189.5 Z"/></g>
<g><path style="opacity:1" fill="#cee4e0" d="M 875.5,192.5 C 882.738,192.568 884.904,195.901 882,202.5C 873.95,212.215 866.284,222.215 859,232.5C 854.147,235.83 850.981,234.663 849.5,229C 849.625,227.373 850.125,225.873 851,224.5C 858.999,213.672 867.166,203.006 875.5,192.5 Z"/></g>
<g><path style="opacity:1" fill="#1d1d1d" d="M 906.5,203.5 C 910.613,205.778 913.946,208.945 916.5,213C 910.085,224.356 904.252,235.856 899,247.5C 907.325,238.175 915.992,229.175 925,220.5C 927.631,221.963 929.798,223.963 931.5,226.5C 916.503,242.83 901.17,258.83 885.5,274.5C 881.342,272.226 879.175,268.893 879,264.5C 886.595,251.304 893.595,237.97 900,224.5C 889.333,235.833 878.667,247.167 868,258.5C 865.833,256.333 863.667,254.167 861.5,252C 876.391,235.706 891.391,219.539 906.5,203.5 Z"/></g>
<g><path style="opacity:1" fill="#c8ddd9" d="M 310.5,206.5 C 318.098,212.594 325.264,219.261 332,226.5C 332.667,227.167 332.667,227.833 332,228.5C 329.876,229.622 328.043,231.122 326.5,233C 325.551,233.617 324.718,233.451 324,232.5C 319.219,223.937 314.719,215.27 310.5,206.5 Z"/></g>
<g><path style="opacity:1" fill="#1d1d1d" d="M 281.5,209.5 C 284.192,211.203 286.192,213.536 287.5,216.5C 283.614,220.883 279.614,225.05 275.5,229C 279.33,233.663 283.33,238.163 287.5,242.5C 290.651,239.85 293.651,237.016 296.5,234C 299.576,235.024 302.242,237.024 304.5,240C 301.062,243.354 297.728,246.688 294.5,250C 298.653,254.822 302.82,259.655 307,264.5C 311.649,260.686 316.149,256.686 320.5,252.5C 323.2,254.234 325.2,256.568 326.5,259.5C 319.843,265.989 313.01,272.322 306,278.5C 290.833,262 275.667,245.5 260.5,229C 267.697,222.634 274.697,216.134 281.5,209.5 Z"/></g>
<g><path style="opacity:1" fill="#1d1d1d" d="M 249.5,241.5 C 254.702,240.756 259.369,241.923 263.5,245C 266.333,247.833 269.167,250.667 272,253.5C 274.006,256.536 274.84,259.869 274.5,263.5C 277.941,263.301 281.274,263.801 284.5,265C 290.54,270.709 296.874,276.043 303.5,281C 301,283.5 298.5,286 296,288.5C 289.875,284.044 284.042,279.211 278.5,274C 274.102,272.625 270.768,273.958 268.5,278C 274.864,284.699 281.531,291.032 288.5,297C 286,299.5 283.5,302 281,304.5C 264.698,289.866 248.698,274.866 233,259.5C 232.333,258.833 232.333,258.167 233,257.5C 238.449,251.881 243.949,246.548 249.5,241.5 Z"/></g>
<g><path style="opacity:1" fill="#e49794" d="M 886.5,487.5 C 885.542,487.953 884.708,488.619 884,489.5C 869.043,521.078 853.876,552.411 838.5,583.5C 816.705,568.841 795.872,552.841 776,535.5C 782.822,507.211 789.822,478.878 797,450.5C 806.621,408.686 794.454,374.853 760.5,349C 736.883,334.851 711.883,331.851 685.5,340C 648.784,355.842 610.451,362.508 570.5,360C 534.442,357.655 499.442,350.322 465.5,338C 411.612,326.856 376.112,347.356 359,399.5C 352.623,419.777 350.957,440.444 354,461.5C 356.946,479.616 361.612,497.282 368,514.5C 368.667,516.167 368.667,517.833 368,519.5C 356.51,539.316 343.843,558.316 330,576.5C 320.117,588.226 309.284,598.559 297.5,607.5C 279.85,574.201 262.183,540.868 244.5,507.5C 270.041,395.788 335.041,316.288 439.5,269C 513.539,239.229 588.872,235.563 665.5,258C 767.792,291.957 838.625,359.124 878,459.5C 881.346,468.701 884.179,478.035 886.5,487.5 Z"/></g>
<g><path style="opacity:1" fill="#cce2df" d="M 250.5,252.5 C 252.527,252.338 254.527,252.505 256.5,253C 259.721,256.221 262.887,259.387 266,262.5C 266.667,263.833 266.667,265.167 266,266.5C 264.333,268.167 262.667,269.833 261,271.5C 256.524,266.934 251.857,262.601 247,258.5C 246.333,257.833 246.333,257.167 247,256.5C 248.376,255.295 249.542,253.962 250.5,252.5 Z"/></g>
<g><path style="opacity:1" fill="#1e1d1d" d="M 226.5,264.5 C 229.431,266.091 232.098,268.091 234.5,270.5C 232.476,272.69 230.643,275.023 229,277.5C 228.251,278.635 228.417,279.635 229.5,280.5C 243.524,291.691 257.69,302.691 272,313.5C 272.667,314.5 272.667,315.5 272,316.5C 270.122,318.043 268.622,319.876 267.5,322C 266.833,322.667 266.167,322.667 265.5,322C 250.69,310.691 236.023,299.191 221.5,287.5C 219.138,290.192 216.804,292.859 214.5,295.5C 210.94,294.121 208.773,291.787 208,288.5C 214.765,280.909 220.931,272.909 226.5,264.5 Z"/></g>
<g><path style="opacity:1" fill="#fefefd" d="M 838.5,583.5 C 837.066,589.698 835.066,595.698 832.5,601.5C 818.682,599.761 806.015,594.927 794.5,587C 785.333,579.833 776.167,572.667 767,565.5C 760.667,586.167 754.333,606.833 748,627.5C 744.944,643.727 742.611,660.06 741,676.5C 740.402,720.85 740.735,765.183 742,809.5C 739.833,821.687 732.666,829.187 720.5,832C 708.404,835.494 696.404,835.161 684.5,831C 672.551,827.525 661.551,822.192 651.5,815C 649.212,812.257 647.045,809.423 645,806.5C 628.808,756.392 614.808,705.725 603,654.5C 601.08,648.161 598.246,642.327 594.5,637C 587.199,634.562 580.199,635.228 573.5,639C 565.274,646.227 558.107,654.393 552,663.5C 541.397,681.373 532.397,700.04 525,719.5C 516.983,741.216 509.983,763.216 504,785.5C 487.08,818.704 460.58,830.204 424.5,820C 417.204,816.935 411.371,812.102 407,805.5C 404.998,794.437 404.164,783.27 404.5,772C 405.353,743.468 406.519,714.968 408,686.5C 402.928,644.556 393.928,603.556 381,563.5C 361.597,587.578 339.097,608.078 313.5,625C 310.264,626.786 306.93,628.286 303.5,629.5C 301.706,622.118 299.706,614.785 297.5,607.5C 309.284,598.559 320.117,588.226 330,576.5C 343.843,558.316 356.51,539.316 368,519.5C 368.667,517.833 368.667,516.167 368,514.5C 361.612,497.282 356.946,479.616 354,461.5C 350.957,440.444 352.623,419.777 359,399.5C 376.112,347.356 411.612,326.856 465.5,338C 499.442,350.322 534.442,357.655 570.5,360C 610.451,362.508 648.784,355.842 685.5,340C 711.883,331.851 736.883,334.851 760.5,349C 794.454,374.853 806.621,408.686 797,450.5C 789.822,478.878 782.822,507.211 776,535.5C 795.872,552.841 816.705,568.841 838.5,583.5 Z"/></g>
<g><path style="opacity:1" fill="#bfc0bf" d="M 242.5,507.5 C 241.127,507.343 239.793,507.51 238.5,508C 230.6,512.117 222.6,515.951 214.5,519.5C 209.062,505.292 202.562,491.625 195,478.5C 149.361,485.864 122.028,466.864 113,421.5C 110.339,387.655 123.839,362.488 153.5,346C 188.914,331.309 218.081,339.142 241,369.5C 253.227,398.059 251.894,426.059 237,453.5C 233.352,458.315 229.185,462.648 224.5,466.5C 229.432,479.461 234.265,492.461 239,505.5C 240.302,506.085 241.469,506.751 242.5,507.5 Z"/></g>
<g><path style="opacity:1" fill="#a3a3a2" d="M 914.5,498.5 C 906.166,495.329 898.166,491.663 890.5,487.5C 916.659,463.509 942.992,439.676 969.5,416C 960.951,399.733 952.284,383.566 943.5,367.5C 943.876,365.617 944.876,364.117 946.5,363C 949.433,361.729 952.099,360.062 954.5,358C 957.096,357.542 959.263,358.375 961,360.5C 974.278,380.111 987.945,399.444 1002,418.5C 1003.42,421.03 1003.75,423.697 1003,426.5C 977.587,444.456 952.087,462.29 926.5,480C 922.102,485.976 918.102,492.143 914.5,498.5 Z"/></g>
<g><path style="opacity:1" fill="#1f1e1e" d="M 542.5,456.5 C 549.288,455.78 553.454,458.78 555,465.5C 556.152,472.387 553.986,477.887 548.5,482C 541.253,483.103 537.086,479.937 536,472.5C 535.152,465.872 537.319,460.538 542.5,456.5 Z"/></g>
<g><path style="opacity:1" fill="#1e1d1d" d="M 595.5,457.5 C 600.952,457.144 604.785,459.477 607,464.5C 607.826,469.589 607.492,474.589 606,479.5C 600.916,486.059 595.916,486.059 591,479.5C 586.652,470.933 588.152,463.599 595.5,457.5 Z"/></g>
<g><path style="opacity:1" fill="#526a73" d="M 886.5,487.5 C 887.833,487.5 889.167,487.5 890.5,487.5C 898.166,491.663 906.166,495.329 914.5,498.5C 914.539,499.583 914.873,500.583 915.5,501.5C 911.926,519.663 909.593,537.996 908.5,556.5C 899.461,546.59 888.128,541.923 874.5,542.5C 872.074,542.404 869.907,543.07 868,544.5C 867.333,549.167 867.333,553.833 868,558.5C 872.588,578.105 876.921,597.772 881,617.5C 881.408,619.41 882.575,620.41 884.5,620.5C 889.631,619.021 894.298,616.687 898.5,613.5C 896.303,618.756 894.303,624.089 892.5,629.5C 882.458,656.298 873.791,683.631 866.5,711.5C 859.203,735.686 852.37,760.02 846,784.5C 843.282,796.338 838.449,807.171 831.5,817C 824.812,821.323 817.479,822.656 809.5,821C 802.553,819.691 795.553,818.858 788.5,818.5C 787.811,817.293 787.645,815.959 788,814.5C 787.167,815.5 786.333,816.5 785.5,817.5C 774.708,814.858 765.542,809.524 758,801.5C 754.791,795.886 753.791,789.886 755,783.5C 762.968,766.227 771.968,749.56 782,733.5C 798.572,689.364 815.405,645.364 832.5,601.5C 835.066,595.698 837.066,589.698 838.5,583.5C 853.876,552.411 869.043,521.078 884,489.5C 884.708,488.619 885.542,487.953 886.5,487.5 Z"/></g>
<g><path style="opacity:1" fill="#526a73" d="M 242.5,507.5 C 243.167,507.5 243.833,507.5 244.5,507.5C 262.183,540.868 279.85,574.201 297.5,607.5C 299.706,614.785 301.706,622.118 303.5,629.5C 307.846,655.712 317.013,680.045 331,702.5C 339.333,714.5 347.667,726.5 356,738.5C 360.469,745.771 364.135,753.438 367,761.5C 369.313,772.041 366.146,780.541 357.5,787C 348.506,792.496 338.839,796.329 328.5,798.5C 325.303,798.973 322.137,799.639 319,800.5C 317.605,800.22 316.438,799.553 315.5,798.5C 308.121,783.741 300.787,769.075 293.5,754.5C 281.296,727.065 268.796,699.731 256,672.5C 252.764,661.626 249.264,650.959 245.5,640.5C 245.5,640.167 245.5,639.833 245.5,639.5C 259.064,639.303 270.564,634.303 280,624.5C 280.667,621.833 280.667,619.167 280,616.5C 270.363,597.221 259.53,578.721 247.5,561C 245.167,560.333 242.833,560.333 240.5,561C 234.217,563.63 228.883,567.463 224.5,572.5C 218.906,557.221 213.572,541.721 208.5,526C 209.399,522.737 211.399,520.571 214.5,519.5C 222.6,515.951 230.6,512.117 238.5,508C 239.793,507.51 241.127,507.343 242.5,507.5 Z"/></g>
<g><path style="opacity:1" fill="#212020" d="M 635.5,516.5 C 637.5,516.5 639.5,516.5 641.5,516.5C 637.068,537.2 627.068,554.7 611.5,569C 587.234,584.652 563.234,584.319 539.5,568C 524.864,554.569 515.531,538.069 511.5,518.5C 513.792,518.244 515.959,518.577 518,519.5C 521.672,535.481 529.172,549.314 540.5,561C 558.788,575.873 578.788,578.54 600.5,569C 614.65,559.839 624.817,547.339 631,531.5C 632.81,526.572 634.31,521.572 635.5,516.5 Z"/></g>
<g><path style="opacity:1" fill="#fefefd" d="M 908.5,556.5 C 912.745,561.98 916.245,567.98 919,574.5C 919.547,584.632 916.547,593.632 910,601.5C 905.963,605.369 902.13,609.369 898.5,613.5C 894.298,616.687 889.631,619.021 884.5,620.5C 882.575,620.41 881.408,619.41 881,617.5C 876.921,597.772 872.588,578.105 868,558.5C 867.333,553.833 867.333,549.167 868,544.5C 869.907,543.07 872.074,542.404 874.5,542.5C 888.128,541.923 899.461,546.59 908.5,556.5 Z"/></g>
<g><path style="opacity:1" fill="#fefefd" d="M 245.5,639.5 C 230.703,631.93 220.536,620.264 215,604.5C 211.629,591.79 214.795,581.123 224.5,572.5C 228.883,567.463 234.217,563.63 240.5,561C 242.833,560.333 245.167,560.333 247.5,561C 259.53,578.721 270.363,597.221 280,616.5C 280.667,619.167 280.667,621.833 280,624.5C 270.564,634.303 259.064,639.303 245.5,639.5 Z"/></g>
<g><path style="opacity:1" fill="#e49794" d="M 832.5,601.5 C 815.405,645.364 798.572,689.364 782,733.5C 771.968,749.56 762.968,766.227 755,783.5C 753.791,789.886 754.791,795.886 758,801.5C 765.542,809.524 774.708,814.858 785.5,817.5C 786.333,816.5 787.167,815.5 788,814.5C 787.645,815.959 787.811,817.293 788.5,818.5C 702.295,891.22 603.628,916.386 492.5,894C 428.019,878.285 373.353,846.452 328.5,798.5C 338.839,796.329 348.506,792.496 357.5,787C 366.146,780.541 369.313,772.041 367,761.5C 364.135,753.438 360.469,745.771 356,738.5C 347.667,726.5 339.333,714.5 331,702.5C 317.013,680.045 307.846,655.712 303.5,629.5C 306.93,628.286 310.264,626.786 313.5,625C 339.097,608.078 361.597,587.578 381,563.5C 393.928,603.556 402.928,644.556 408,686.5C 406.519,714.968 405.353,743.468 404.5,772C 404.164,783.27 404.998,794.437 407,805.5C 411.371,812.102 417.204,816.935 424.5,820C 460.58,830.204 487.08,818.704 504,785.5C 509.983,763.216 516.983,741.216 525,719.5C 532.397,700.04 541.397,681.373 552,663.5C 558.107,654.393 565.274,646.227 573.5,639C 580.199,635.228 587.199,634.562 594.5,637C 598.246,642.327 601.08,648.161 603,654.5C 614.808,705.725 628.808,756.392 645,806.5C 647.045,809.423 649.212,812.257 651.5,815C 661.551,822.192 672.551,827.525 684.5,831C 696.404,835.161 708.404,835.494 720.5,832C 732.666,829.187 739.833,821.687 742,809.5C 740.735,765.183 740.402,720.85 741,676.5C 742.611,660.06 744.944,643.727 748,627.5C 754.333,606.833 760.667,586.167 767,565.5C 776.167,572.667 785.333,579.833 794.5,587C 806.015,594.927 818.682,599.761 832.5,601.5 Z"/></g>
<g><path style="opacity:1" fill="#dc9694" d="M 892.5,629.5 C 887.832,658.196 879.165,685.53 866.5,711.5C 873.791,683.631 882.458,656.298 892.5,629.5 Z"/></g>
<g><path style="opacity:1" fill="#df9895" d="M 245.5,640.5 C 249.264,650.959 252.764,661.626 256,672.5C 268.796,699.731 281.296,727.065 293.5,754.5C 269.868,719.881 253.868,681.881 245.5,640.5 Z"/></g>
<g><path style="opacity:1" fill="#1c1c1c" d="M 868.5,817.5 C 878.85,816.842 887.517,820.342 894.5,828C 891.992,831.338 889.325,834.505 886.5,837.5C 883.978,835.144 881.312,832.977 878.5,831C 874.22,828.523 870.72,829.356 868,833.5C 867.333,835.5 867.333,837.5 868,839.5C 881.559,851.026 895.392,862.193 909.5,873C 917.565,873.609 920.398,870.109 918,862.5C 913.994,859.324 910.16,855.991 906.5,852.5C 908.592,849.319 910.925,846.319 913.5,843.5C 920.809,847.642 926.642,853.309 931,860.5C 932.464,874.917 926.13,883.584 912,886.5C 908.681,886.212 905.515,885.379 902.5,884C 887.712,872.881 873.212,861.381 859,849.5C 853.156,841.452 853.156,833.452 859,825.5C 861.772,822.217 864.939,819.55 868.5,817.5 Z"/></g>
<g><path style="opacity:1" fill="#1c1c1c" d="M 304.5,843.5 C 312.348,848.167 319.514,853.834 326,860.5C 330.65,867.649 330.317,874.649 325,881.5C 320.613,888.947 314.113,893.281 305.5,894.5C 307.253,900.22 306.419,905.553 303,910.5C 299.114,917.386 293.614,922.553 286.5,926C 278.798,927.484 272.131,925.484 266.5,920C 261.833,916 257.167,912 252.5,908C 270.046,886.626 287.38,865.126 304.5,843.5 Z"/></g>
<g><path style="opacity:1" fill="#1d1c1c" d="M 843.5,845.5 C 864.576,863.736 885.242,882.569 905.5,902C 902.977,906.205 899.644,909.205 895.5,911C 875.667,892.5 855.833,874 836,855.5C 835.333,854.833 835.333,854.167 836,853.5C 838.705,850.964 841.205,848.297 843.5,845.5 Z"/></g>
<g><path style="opacity:1" fill="#1d1c1c" d="M 830.5,859.5 C 850.108,879.448 869.108,900.115 887.5,921.5C 884.192,924.471 880.859,927.471 877.5,930.5C 860.752,919.376 843.919,908.376 827,897.5C 826.333,898.167 826.333,898.833 827,899.5C 839.899,912.976 852.566,926.643 865,940.5C 862.912,943.614 860.245,946.614 857,949.5C 838.351,928.684 819.518,908.017 800.5,887.5C 804.504,883.663 808.671,879.996 813,876.5C 826.752,885.443 840.585,893.943 854.5,902C 844.45,890.739 834.283,879.572 824,868.5C 823.251,867.365 823.417,866.365 824.5,865.5C 826.854,863.812 828.854,861.812 830.5,859.5 Z"/></g>
<g><path style="opacity:1" fill="#cde3df" d="M 307.5,860.5 C 312.71,862.51 315.21,866.176 315,871.5C 312.528,875.966 309.362,879.799 305.5,883C 300.861,883.348 297.195,881.514 294.5,877.5C 299.085,871.983 303.418,866.317 307.5,860.5 Z"/></g>
<g><path style="opacity:1" fill="#1d1c1c" d="M 339.5,871.5 C 350.168,877.167 360.168,883.834 369.5,891.5C 367.748,894.672 365.748,897.672 363.5,900.5C 357.199,896.697 351.032,892.697 345,888.5C 340.456,894.424 336.289,900.591 332.5,907C 336.82,910.973 341.487,914.639 346.5,918C 344.457,921.253 342.29,924.42 340,927.5C 335.487,924.244 330.82,921.244 326,918.5C 324.739,918.759 323.739,919.426 323,920.5C 319.167,926.333 315.333,932.167 311.5,938C 317.833,942.333 324.167,946.667 330.5,951C 328.045,954.078 325.711,957.244 323.5,960.5C 313.39,954.128 303.723,947.295 294.5,940C 309.38,917.069 324.38,894.236 339.5,871.5 Z"/></g>
<g><path style="opacity:1" fill="#cfe5e1" d="M 285.5,887.5 C 291.708,889.196 294.542,893.196 294,899.5C 290.882,904.286 287.382,908.786 283.5,913C 278.159,913.501 273.826,911.501 270.5,907C 275.715,900.624 280.715,894.124 285.5,887.5 Z"/></g>
<g><path style="opacity:1" fill="#1d1c1c" d="M 794.5,890.5 C 796.193,891.475 797.693,892.808 799,894.5C 813.615,914.783 828.615,934.783 844,954.5C 844.982,955.759 845.315,957.092 845,958.5C 842,960.833 839,963.167 836,965.5C 819.333,943.5 802.667,921.5 786,899.5C 785.333,898.833 785.333,898.167 786,897.5C 789.023,895.302 791.856,892.969 794.5,890.5 Z"/></g>
<g><path style="opacity:1" fill="#1c1c1c" d="M 376.5,897.5 C 385.248,897.47 392.414,900.803 398,907.5C 401.673,915.613 400.839,923.28 395.5,930.5C 391.799,928.988 388.466,926.988 385.5,924.5C 390.569,917.798 389.235,913.131 381.5,910.5C 375.32,912.953 372.653,917.62 373.5,924.5C 374.545,931.678 376.378,938.678 379,945.5C 381.24,956.838 378.407,966.671 370.5,975C 359.238,981.821 349.404,979.987 341,969.5C 337.299,961.17 337.966,953.17 343,945.5C 347.586,945.034 351.419,946.701 354.5,950.5C 352.746,953.506 351.412,956.673 350.5,960C 353.793,967.392 358.293,968.225 364,962.5C 365.348,959.289 366.182,955.956 366.5,952.5C 365.383,945.647 363.55,938.981 361,932.5C 357.481,916.879 362.647,905.213 376.5,897.5 Z"/></g>
<g><path style="opacity:1" fill="#1c1c1c" d="M 406.5,911.5 C 419.251,916.707 431.918,922.207 444.5,928C 443.045,931.696 441.212,935.196 439,938.5C 435.349,936.842 431.682,935.175 428,933.5C 427.5,933.833 427,934.167 426.5,934.5C 416.935,956.06 407.102,977.393 397,998.5C 392.986,997.133 389.486,995.133 386.5,992.5C 395.83,971.172 405.164,949.838 414.5,928.5C 410.568,926.195 406.568,923.862 402.5,921.5C 404.4,918.371 405.733,915.037 406.5,911.5 Z"/></g>
<g><path style="opacity:1" fill="#1d1c1c" d="M 763.5,912.5 C 765.017,912.511 766.184,913.177 767,914.5C 778.834,934.172 791.167,953.505 804,972.5C 809.749,968.708 815.582,965.042 821.5,961.5C 824.188,964.362 826.521,967.528 828.5,971C 818.647,977.579 808.647,983.579 798.5,989C 783.708,965.918 769.042,942.751 754.5,919.5C 757.233,916.761 760.233,914.427 763.5,912.5 Z"/></g>
<g><path style="opacity:1" fill="#1d1c1c" d="M 738.5,925.5 C 746.039,925.02 752.205,927.687 757,933.5C 759.262,937.455 761.428,941.455 763.5,945.5C 759.993,947.754 756.327,949.754 752.5,951.5C 750.758,947.682 748.758,944.016 746.5,940.5C 743.326,938.031 739.993,937.864 736.5,940C 735.282,941.438 734.615,943.105 734.5,945C 741.25,960.667 748.416,976.167 756,991.5C 760.251,996.726 764.585,996.726 769,991.5C 769.667,989.833 769.667,988.167 769,986.5C 766.754,982.509 764.921,978.343 763.5,974C 766.593,971.898 769.926,970.065 773.5,968.5C 777.845,974.519 780.511,981.186 781.5,988.5C 780.551,999.509 774.551,1006.01 763.5,1008C 756.891,1008.78 751.391,1006.62 747,1001.5C 737.583,984 729.25,966 722,947.5C 720.67,940.655 722.836,935.155 728.5,931C 731.767,928.87 735.1,927.037 738.5,925.5 Z"/></g>
<g><path style="opacity:1" fill="#1c1c1c" d="M 462.5,934.5 C 470.574,936.691 478.574,939.191 486.5,942C 493.335,944.672 496.669,949.672 496.5,957C 492.686,974.755 487.852,992.255 482,1009.5C 477.606,1020.11 469.773,1023.95 458.5,1021C 451.901,1018.85 445.235,1017.02 438.5,1015.5C 446.098,988.372 454.098,961.372 462.5,934.5 Z"/></g>
<g><path style="opacity:1" fill="#1c1b1b" d="M 505.5,947.5 C 517.191,949.705 528.858,952.038 540.5,954.5C 540.406,958.136 539.739,961.636 538.5,965C 531.162,964.86 523.996,963.694 517,961.5C 514.082,968.917 512.916,976.584 513.5,984.5C 518.823,986.064 524.156,987.564 529.5,989C 528.46,992.4 527.794,995.9 527.5,999.5C 521.201,998.374 514.868,997.374 508.5,996.5C 507.868,1003.79 506.534,1010.96 504.5,1018C 504.833,1018.83 505.167,1019.67 505.5,1020.5C 512.347,1022.6 519.347,1023.94 526.5,1024.5C 525.514,1028.44 524.848,1032.44 524.5,1036.5C 512.76,1034.49 501.093,1032.15 489.5,1029.5C 494.74,1002.16 500.073,974.827 505.5,947.5 Z"/></g>
<g><path style="opacity:1" fill="#1d1c1c" d="M 676.5,949.5 C 677.833,949.5 679.167,949.5 680.5,949.5C 686.653,972.446 692.653,995.446 698.5,1018.5C 705.068,1016.52 711.735,1014.86 718.5,1013.5C 720.636,1014.42 721.802,1016.09 722,1018.5C 722.346,1020.22 722.846,1021.88 723.5,1023.5C 712.592,1026.98 701.592,1030.31 690.5,1033.5C 682.533,1007.1 674.867,980.598 667.5,954C 670.208,951.825 673.208,950.325 676.5,949.5 Z"/></g>
<g><path style="opacity:1" fill="#cfe5e1" d="M 471.5,949.5 C 475.65,950.492 479.483,952.159 483,954.5C 483.667,956.5 483.667,958.5 483,960.5C 478.667,975.167 474.333,989.833 470,1004.5C 467.928,1009.14 464.428,1010.64 459.5,1009C 457.349,1008.74 455.682,1007.74 454.5,1006C 460.093,987.125 465.759,968.292 471.5,949.5 Z"/></g>
<g><path style="opacity:1" fill="#1d1d1d" d="M 568.5,1002.5 C 568.372,1004.65 568.872,1006.65 570,1008.5C 570.494,1006.87 570.66,1005.2 570.5,1003.5C 572.002,988.814 573.669,974.148 575.5,959.5C 592.833,959.5 610.167,959.5 627.5,959.5C 627.5,963.167 627.5,966.833 627.5,970.5C 624.287,970.19 621.287,970.523 618.5,971.5C 617.167,971.5 615.833,971.5 614.5,971.5C 615.167,995.494 615.5,1019.49 615.5,1043.5C 611.167,1043.5 606.833,1043.5 602.5,1043.5C 602.611,1019.49 602.278,995.492 601.5,971.5C 596.833,971.5 592.167,971.5 587.5,971.5C 587.664,968.813 587.497,966.146 587,963.5C 583.833,990.17 580.666,1016.84 577.5,1043.5C 572.833,1043.17 568.167,1042.83 563.5,1042.5C 561.276,1021.76 558.442,1001.1 555,980.5C 552.417,1000.17 549.917,1019.83 547.5,1039.5C 543.452,1039.61 539.452,1039.27 535.5,1038.5C 538.915,1010.84 542.249,983.177 545.5,955.5C 551.172,955.76 556.839,956.093 562.5,956.5C 564.56,971.827 566.56,987.16 568.5,1002.5 Z"/></g>
<g><path style="opacity:1" fill="#1d1c1c" d="M 647.5,955.5 C 650.079,955.083 652.246,955.75 654,957.5C 661.866,983.597 670.032,1009.6 678.5,1035.5C 674.357,1036.73 670.19,1037.73 666,1038.5C 663.803,1033.74 662.303,1028.74 661.5,1023.5C 655.833,1024.17 650.167,1024.83 644.5,1025.5C 644.5,1030.83 644.5,1036.17 644.5,1041.5C 640.5,1041.83 636.5,1042.17 632.5,1042.5C 632.963,1014.5 633.463,986.501 634,958.5C 638.588,957.447 643.088,956.447 647.5,955.5 Z"/></g>
<g><path style="opacity:1" fill="#4c5150" d="M 627.5,959.5 C 628.483,963.298 628.817,967.298 628.5,971.5C 625.167,971.5 621.833,971.5 618.5,971.5C 621.287,970.523 624.287,970.19 627.5,970.5C 627.5,966.833 627.5,963.167 627.5,959.5 Z"/></g>
<g><path style="opacity:1" fill="#cce3df" d="M 646.5,975.5 C 650.131,986.896 653.465,998.396 656.5,1010C 655.263,1013.04 652.93,1014.21 649.5,1013.5C 648.167,1013.5 646.833,1013.5 645.5,1013.5C 645.171,1000.66 645.505,987.989 646.5,975.5 Z"/></g>
<g><path style="opacity:1" fill="#666e6c" d="M 568.5,1002.5 C 569.167,1002.83 569.833,1003.17 570.5,1003.5C 570.66,1005.2 570.494,1006.87 570,1008.5C 568.872,1006.65 568.372,1004.65 568.5,1002.5 Z"/></g>
<g><path style="opacity:1" fill="#8b9996" d="M 646.5,975.5 C 645.505,987.989 645.171,1000.66 645.5,1013.5C 646.833,1013.5 648.167,1013.5 649.5,1013.5C 648.081,1014.45 646.415,1014.78 644.5,1014.5C 644.333,1000.5 644.5,986.496 645,972.5C 646.039,973.244 646.539,974.244 646.5,975.5 Z"/></g>
</svg>
