<?xml version="1.0" encoding="UTF-8"?>
<!DOCTYPE svg PUBLIC "-//W3C//DTD SVG 1.1//EN" "http://www.w3.org/Graphics/SVG/1.1/DTD/svg11.dtd">
<svg xmlns="http://www.w3.org/2000/svg" version="1.1" width="1201px" height="1199px" style="shape-rendering:geometricPrecision; text-rendering:geometricPrecision; image-rendering:optimizeQuality; fill-rule:evenodd; clip-rule:evenodd" xmlns:xlink="http://www.w3.org/1999/xlink">
<g><path style="opacity:1" fill="#fefefe" d="M -0.5,-0.5 C 399.833,-0.5 800.167,-0.5 1200.5,-0.5C 1200.5,399.167 1200.5,798.833 1200.5,1198.5C 800.167,1198.5 399.833,1198.5 -0.5,1198.5C -0.5,798.833 -0.5,399.167 -0.5,-0.5 Z"/></g>
<g><path style="opacity:1" fill="#a2cfcc" d="M 569.5,57.5 C 738.373,52.9043 882.206,109.904 1001,228.5C 1119.37,356.601 1169.7,507.934 1152,682.5C 1128.81,845.135 1051.31,974.635 919.5,1071C 796.925,1154.5 661.925,1186.17 514.5,1166C 361.623,1139.86 239.123,1065.03 147,941.5C 59.9636,816.735 26.9636,678.735 48,527.5C 74.2472,379.087 146.747,259.253 265.5,168C 355.976,101.781 457.309,64.9481 569.5,57.5 Z"/></g>
<g><path style="opacity:1" fill="#d7e9e6" d="M 573.5,97.5 C 732.301,93.6809 866.801,148.348 977,261.5C 1096.81,396.373 1138.81,552.706 1103,730.5C 1073.32,852.44 1009.16,951.607 910.5,1028C 795.261,1111.98 666.594,1144.98 524.5,1127C 379.263,1103.27 263.43,1032.44 177,914.5C 97.1941,798.76 67.5274,671.094 88,531.5C 113.083,393.426 181.25,282.259 292.5,198C 376.297,137.232 469.964,103.732 573.5,97.5 Z"/></g>
<g><path style="opacity:1" fill="#1b1b1b" d="M 642.5,137.5 C 652.343,140.504 656.01,147.17 653.5,157.5C 655.805,167.898 652.139,174.898 642.5,178.5C 639.167,178.5 635.833,178.5 632.5,178.5C 632.5,186.833 632.5,195.167 632.5,203.5C 629.167,203.5 625.833,203.5 622.5,203.5C 622.5,196.5 622.5,189.5 622.5,182.5C 622.5,174.833 622.5,167.167 622.5,159.5C 623.492,152.352 623.825,145.019 623.5,137.5C 629.833,137.5 636.167,137.5 642.5,137.5 Z"/></g>
<g><path style="opacity:1" fill="#1d1d1d" d="M 583.5,138.5 C 586.5,138.5 589.5,138.5 592.5,138.5C 592.963,141.482 593.296,144.482 593.5,147.5C 588.851,148.065 584.184,148.565 579.5,149C 576.651,151.559 575.817,154.726 577,158.5C 577.65,165.641 581.483,168.308 588.5,166.5C 588.187,163.753 588.52,161.086 589.5,158.5C 592.758,157.583 596.091,157.249 599.5,157.5C 599.5,159.833 599.5,162.167 599.5,164.5C 600.5,164.5 601.5,164.5 602.5,164.5C 602.677,169.118 602.01,173.618 600.5,178C 601.691,185.795 602.525,193.628 603,201.5C 603.374,202.416 603.874,203.25 604.5,204C 601.294,204.296 598.128,204.796 595,205.5C 593.523,204.556 592.523,203.223 592,201.5C 586.978,208.17 580.978,209.17 574,204.5C 570.476,198.891 568.976,192.724 569.5,186C 568.427,180.277 570.093,175.61 574.5,172C 567.034,165.931 564.534,158.098 567,148.5C 570.458,141.692 575.958,138.358 583.5,138.5 Z"/></g>
<g><path style="opacity:1" fill="#1e1d1d" d="M 667.5,200.5 C 666.566,201.568 666.232,202.901 666.5,204.5C 663.5,204.5 660.5,204.5 657.5,204.5C 656.839,202.866 656.506,201.033 656.5,199C 658.636,178.534 660.303,158.034 661.5,137.5C 669.596,138.048 677.596,139.214 685.5,141C 688.728,142.563 690.895,145.063 692,148.5C 692.889,156.169 691.722,163.502 688.5,170.5C 687.019,171.48 685.685,172.647 684.5,174C 686.359,175.558 687.859,177.391 689,179.5C 689.167,188.83 689.001,198.164 688.5,207.5C 685.193,206.949 681.86,206.616 678.5,206.5C 678.666,197.827 678.5,189.16 678,180.5C 675.096,178.773 671.93,178.107 668.5,178.5C 667.962,185.822 667.629,193.155 667.5,200.5 Z"/></g>
<g><path style="opacity:1" fill="#1e1e1d" d="M 702.5,141.5 C 712.132,143.272 721.799,144.939 731.5,146.5C 730.593,149.421 730.26,152.421 730.5,155.5C 724.075,155.04 717.742,154.04 711.5,152.5C 710.289,158.771 709.622,165.104 709.5,171.5C 713.833,172.167 718.167,172.833 722.5,173.5C 722.492,176.545 722.159,179.545 721.5,182.5C 717.077,182.374 712.744,181.707 708.5,180.5C 707.914,180.709 707.414,181.043 707,181.5C 705.839,187.8 705.006,194.134 704.5,200.5C 709.847,201.169 715.18,202.002 720.5,203C 721.395,206.095 721.395,209.262 720.5,212.5C 711.17,211.167 701.837,209.834 692.5,208.5C 695.751,186.156 699.085,163.823 702.5,141.5 Z"/></g>
<g><path style="opacity:1" fill="#1c1c1c" d="M 538.5,144.5 C 539.833,144.5 541.167,144.5 542.5,144.5C 542.704,147.518 543.037,150.518 543.5,153.5C 540.834,153.933 538.168,154.433 535.5,155C 534.376,155.839 533.709,157.006 533.5,158.5C 537.178,176.523 540.844,194.523 544.5,212.5C 541.252,212.901 538.085,213.568 535,214.5C 531.023,196.113 526.856,177.779 522.5,159.5C 518.88,158.707 515.213,158.707 511.5,159.5C 511.037,156.518 510.704,153.518 510.5,150.5C 520.007,148.769 529.34,146.769 538.5,144.5 Z"/></g>
<g><path style="opacity:1" fill="#d3e5e2" d="M 633.5,146.5 C 642.236,145.429 645.57,149.263 643.5,158C 645.242,166.418 641.909,170.252 633.5,169.5C 633.5,161.833 633.5,154.167 633.5,146.5 Z"/></g>
<g><path style="opacity:1" fill="#d3e4e2" d="M 671.5,148.5 C 674.649,148.211 677.649,148.711 680.5,150C 681.529,155.459 681.363,160.959 680,166.5C 677.174,168.34 674.007,169.006 670.5,168.5C 670.391,161.804 670.724,155.137 671.5,148.5 Z"/></g>
<g><path style="opacity:1" fill="#1d1c1c" d="M 737.5,147.5 C 740.763,148.482 744.097,149.149 747.5,149.5C 746.093,166.84 744.926,184.173 744,201.5C 750.529,186.247 756.862,170.914 763,155.5C 766.095,154.605 769.262,154.605 772.5,155.5C 764.739,176.361 756.406,197.028 747.5,217.5C 747,217.833 746.5,218.167 746,218.5C 741.575,217.102 737.075,216.102 732.5,215.5C 733.693,192.798 735.36,170.131 737.5,147.5 Z"/></g>
<g><path style="opacity:1" fill="#1d1d1d" d="M 497.5,153.5 C 500.547,152.855 502.713,153.855 504,156.5C 510.305,176.724 516.138,197.057 521.5,217.5C 518.656,218.058 515.822,218.725 513,219.5C 512.167,219.167 511.333,218.833 510.5,218.5C 502.082,205.334 493.916,192 486,178.5C 490.243,193.742 494.41,209.075 498.5,224.5C 495.687,224.548 493.021,225.215 490.5,226.5C 483.737,205.378 477.071,184.211 470.5,163C 474.576,160.64 478.909,159.307 483.5,159C 490.208,170.25 497.041,181.417 504,192.5C 500.847,179.89 497.681,167.223 494.5,154.5C 495.791,154.737 496.791,154.404 497.5,153.5 Z"/></g>
<g><path style="opacity:1" fill="#4c504f" d="M 642.5,137.5 C 636.167,137.5 629.833,137.5 623.5,137.5C 623.825,145.019 623.492,152.352 622.5,159.5C 622.5,151.833 622.5,144.167 622.5,136.5C 629.354,136.176 636.021,136.509 642.5,137.5 Z"/></g>
<g><path style="opacity:1" fill="#1d1d1d" d="M 780.5,158.5 C 789.659,161.441 798.659,164.775 807.5,168.5C 806.215,171.021 805.548,173.687 805.5,176.5C 799.928,175.143 794.428,173.477 789,171.5C 788.228,171.645 787.561,171.978 787,172.5C 785.068,177.462 783.235,182.462 781.5,187.5C 785.372,190.128 789.705,191.795 794.5,192.5C 794.309,196.074 793.309,199.407 791.5,202.5C 787.197,201.122 783.03,199.456 779,197.5C 776.45,203.145 774.283,208.979 772.5,215C 772.645,215.772 772.978,216.439 773.5,217C 778.713,219.017 784.046,220.517 789.5,221.5C 788.256,224.727 787.09,228.061 786,231.5C 777.925,228.475 769.758,225.641 761.5,223C 760.572,222.612 759.905,221.945 759.5,221C 766.409,200.106 773.409,179.273 780.5,158.5 Z"/></g>
<g><path style="opacity:1" fill="#1d1c1c" d="M 460.5,165.5 C 462.609,167.89 464.276,170.723 465.5,174C 459.477,176.108 453.81,178.775 448.5,182C 450.738,187.551 453.072,193.051 455.5,198.5C 459.5,196.833 463.5,195.167 467.5,193.5C 469.671,195.483 471.005,197.983 471.5,201C 467.354,203.575 463.021,205.908 458.5,208C 461.074,213.893 463.74,219.726 466.5,225.5C 471.627,223.402 476.794,221.402 482,219.5C 484.012,221.342 485.178,223.675 485.5,226.5C 485.182,227.647 484.516,228.481 483.5,229C 475.57,231.976 467.736,235.142 460,238.5C 451.695,218.056 443.528,197.556 435.5,177C 436.444,175.523 437.777,174.523 439.5,174C 446.8,171.629 453.8,168.796 460.5,165.5 Z"/></g>
<g><path style="opacity:1" fill="#1d1c1c" d="M 816.5,171.5 C 820.362,172.428 824.029,173.928 827.5,176C 828.097,177.062 828.43,178.228 828.5,179.5C 826.146,191.81 824.313,204.144 823,216.5C 827.876,205.078 833.043,193.745 838.5,182.5C 839,182.167 839.5,181.833 840,181.5C 842.56,182.53 845.06,183.697 847.5,185C 838.282,204.649 829.449,224.483 821,244.5C 820.439,245.022 819.772,245.355 819,245.5C 816.44,244.47 813.94,243.303 811.5,242C 810.903,240.938 810.57,239.772 810.5,238.5C 813.164,223.845 815.33,209.179 817,194.5C 810.667,208.5 804.333,222.5 798,236.5C 795.214,234.858 792.381,233.358 789.5,232C 798.915,212.004 807.915,191.837 816.5,171.5 Z"/></g>
<g><path style="opacity:1" fill="#cddedc" d="M 583.5,175.5 C 585.833,175.5 588.167,175.5 590.5,175.5C 590.935,181.842 591.102,188.175 591,194.5C 587.667,198.5 584.333,198.5 581,194.5C 579.919,189.53 579.586,184.53 580,179.5C 581.102,178.051 582.269,176.718 583.5,175.5 Z"/></g>
<g><path style="opacity:1" fill="#1d1d1c" d="M 423.5,180.5 C 424.376,180.369 425.043,180.702 425.5,181.5C 435.047,200.76 444.713,219.927 454.5,239C 454.355,239.772 454.022,240.439 453.5,241C 451.254,242.039 449.087,243.206 447,244.5C 440.333,231.833 433.667,219.167 427,206.5C 430.829,219.826 434.995,233.159 439.5,246.5C 437.29,249.605 434.29,251.105 430.5,251C 421.282,239.449 412.448,227.616 404,215.5C 410.154,228.811 416.654,242.144 423.5,255.5C 421.401,256.965 419.234,258.299 417,259.5C 405.522,240.554 395.022,220.887 385.5,200.5C 389.586,198.04 393.753,195.707 398,193.5C 407.333,206.167 416.667,218.833 426,231.5C 421.838,217.174 417.338,202.841 412.5,188.5C 412.608,187.558 412.941,186.725 413.5,186C 417.056,184.392 420.389,182.559 423.5,180.5 Z"/></g>
<g><path style="opacity:1" fill="#929d9b" d="M 642.5,178.5 C 639.713,179.477 636.713,179.81 633.5,179.5C 633.5,187.833 633.5,196.167 633.5,204.5C 629.5,204.5 625.5,204.5 621.5,204.5C 621.175,196.981 621.508,189.648 622.5,182.5C 622.5,189.5 622.5,196.5 622.5,203.5C 625.833,203.5 629.167,203.5 632.5,203.5C 632.5,195.167 632.5,186.833 632.5,178.5C 635.833,178.5 639.167,178.5 642.5,178.5 Z"/></g>
<g><path style="opacity:1" fill="#1d1d1d" d="M 854.5,188.5 C 864.132,193.316 873.465,198.649 882.5,204.5C 881.253,207.329 879.753,209.995 878,212.5C 875.084,210.959 872.251,209.293 869.5,207.5C 868.522,207.977 867.689,208.643 867,209.5C 858.667,224.5 850.333,239.5 842,254.5C 841.261,255.574 840.261,256.241 839,256.5C 836.222,255.198 833.722,253.532 831.5,251.5C 840.333,235.833 849.167,220.167 858,204.5C 858.667,203.5 858.667,202.5 858,201.5C 855.381,199.779 852.881,197.946 850.5,196C 851.457,193.251 852.79,190.751 854.5,188.5 Z"/></g>
<g><path style="opacity:1" fill="#636a68" d="M 667.5,200.5 C 667.5,202.167 667.5,203.833 667.5,205.5C 663.958,205.813 660.625,205.479 657.5,204.5C 660.5,204.5 663.5,204.5 666.5,204.5C 666.232,202.901 666.566,201.568 667.5,200.5 Z"/></g>
<g><path style="opacity:1" fill="#1d1d1c" d="M 377.5,204.5 C 379.822,206.586 381.822,209.086 383.5,212C 380.64,214.36 377.64,216.527 374.5,218.5C 384.958,234.582 395.291,250.749 405.5,267C 402.582,268.709 399.748,270.542 397,272.5C 386.303,256.635 375.803,240.635 365.5,224.5C 362.661,226.42 359.661,228.087 356.5,229.5C 354.6,227.381 352.934,225.047 351.5,222.5C 360.196,216.49 368.862,210.49 377.5,204.5 Z"/></g>
<g><path style="opacity:1" fill="#1d1d1d" d="M 888.5,208.5 C 891.472,210.322 894.472,212.156 897.5,214C 885.113,232.616 872.613,251.116 860,269.5C 856.928,268.047 854.095,266.213 851.5,264C 863.968,245.557 876.301,227.057 888.5,208.5 Z"/></g>
<g><path style="opacity:1" fill="#1d1d1c" d="M 903.5,224.5 C 914.997,223.57 922.33,228.57 925.5,239.5C 924.345,245.477 921.845,250.81 918,255.5C 910.544,265.291 902.711,274.791 894.5,284C 886.173,288.237 879.006,286.737 873,279.5C 869.591,274.807 868.925,269.807 871,264.5C 879.423,252.655 888.09,240.988 897,229.5C 899.352,227.97 901.519,226.303 903.5,224.5 Z"/></g>
<g><path style="opacity:1" fill="#1d1d1c" d="M 337.5,231.5 C 354.578,246.406 371.244,261.906 387.5,278C 385.017,280.406 382.35,282.573 379.5,284.5C 376.683,282.183 374.016,279.683 371.5,277C 370.092,276.685 368.759,277.018 367.5,278C 365.353,280.237 363.02,282.237 360.5,284C 362.43,287.194 364.097,290.527 365.5,294C 363.729,296.487 361.562,298.654 359,300.5C 348.04,280.747 337.206,260.913 326.5,241C 330.359,237.968 334.026,234.802 337.5,231.5 Z"/></g>
<g><path style="opacity:1" fill="#d2e3e0" d="M 906.5,234.5 C 913.738,234.568 915.904,237.901 913,244.5C 904.95,254.215 897.284,264.215 890,274.5C 885.147,277.83 881.981,276.663 880.5,271C 880.625,269.373 881.125,267.873 882,266.5C 889.999,255.672 898.166,245.006 906.5,234.5 Z"/></g>
<g><path style="opacity:1" fill="#1d1d1d" d="M 937.5,245.5 C 941.613,247.778 944.946,250.945 947.5,255C 941.085,266.356 935.252,277.856 930,289.5C 938.325,280.175 946.992,271.175 956,262.5C 958.631,263.963 960.798,265.963 962.5,268.5C 947.503,284.83 932.17,300.83 916.5,316.5C 912.342,314.226 910.175,310.893 910,306.5C 917.595,293.304 924.595,279.97 931,266.5C 920.333,277.833 909.667,289.167 899,300.5C 896.833,298.333 894.667,296.167 892.5,294C 907.391,277.706 922.391,261.539 937.5,245.5 Z"/></g>
<g><path style="opacity:1" fill="#ccdcda" d="M 341.5,248.5 C 349.098,254.594 356.264,261.261 363,268.5C 363.667,269.167 363.667,269.833 363,270.5C 360.876,271.622 359.043,273.122 357.5,275C 356.551,275.617 355.718,275.451 355,274.5C 350.219,265.937 345.719,257.27 341.5,248.5 Z"/></g>
<g><path style="opacity:1" fill="#1d1d1d" d="M 312.5,251.5 C 315.192,253.203 317.192,255.536 318.5,258.5C 314.614,262.883 310.614,267.05 306.5,271C 310.33,275.663 314.33,280.163 318.5,284.5C 321.651,281.85 324.651,279.016 327.5,276C 330.576,277.024 333.242,279.024 335.5,282C 332.062,285.354 328.728,288.688 325.5,292C 329.653,296.822 333.82,301.655 338,306.5C 342.649,302.686 347.149,298.686 351.5,294.5C 354.2,296.234 356.2,298.568 357.5,301.5C 350.843,307.989 344.01,314.322 337,320.5C 321.833,304 306.667,287.5 291.5,271C 298.697,264.634 305.697,258.134 312.5,251.5 Z"/></g>
<g><path style="opacity:1" fill="#1d1d1c" d="M 280.5,283.5 C 285.702,282.756 290.369,283.923 294.5,287C 297.333,289.833 300.167,292.667 303,295.5C 305.006,298.536 305.84,301.869 305.5,305.5C 308.941,305.301 312.274,305.801 315.5,307C 321.54,312.709 327.874,318.043 334.5,323C 332,325.5 329.5,328 327,330.5C 320.875,326.044 315.042,321.211 309.5,316C 305.102,314.625 301.768,315.958 299.5,320C 305.864,326.699 312.531,333.032 319.5,339C 317,341.5 314.5,344 312,346.5C 295.698,331.866 279.698,316.866 264,301.5C 263.333,300.833 263.333,300.167 264,299.5C 269.449,293.881 274.949,288.548 280.5,283.5 Z"/></g>
<g><path style="opacity:1" fill="#da9a96" d="M 917.5,529.5 C 916.542,529.953 915.708,530.619 915,531.5C 900.059,563.047 884.892,594.38 869.5,625.5C 847.705,610.841 826.872,594.841 807,577.5C 813.822,549.211 820.822,520.878 828,492.5C 837.619,450.681 825.452,416.848 791.5,391C 767.883,376.851 742.883,373.851 716.5,382C 700.22,388.538 683.554,393.871 666.5,398C 608.341,406.409 551.674,400.409 496.5,380C 442.615,368.855 407.115,389.355 390,441.5C 383.625,461.779 381.959,482.445 385,503.5C 387.946,521.616 392.612,539.282 399,556.5C 399.667,558.167 399.667,559.833 399,561.5C 387.51,581.316 374.843,600.316 361,618.5C 351.117,630.226 340.284,640.559 328.5,649.5C 310.85,616.201 293.183,582.868 275.5,549.5C 301.041,437.788 366.041,358.288 470.5,311C 570.995,271.561 668.662,277.561 763.5,329C 841.302,375.326 892.635,442.159 917.5,529.5 Z"/></g>
<g><path style="opacity:1" fill="#d0e1df" d="M 281.5,294.5 C 283.527,294.338 285.527,294.505 287.5,295C 290.721,298.221 293.887,301.387 297,304.5C 297.667,305.833 297.667,307.167 297,308.5C 295.333,310.167 293.667,311.833 292,313.5C 287.524,308.934 282.857,304.601 278,300.5C 277.333,299.833 277.333,299.167 278,298.5C 279.376,297.295 280.542,295.962 281.5,294.5 Z"/></g>
<g><path style="opacity:1" fill="#1e1d1d" d="M 257.5,306.5 C 260.431,308.091 263.098,310.091 265.5,312.5C 263.476,314.69 261.643,317.023 260,319.5C 259.251,320.635 259.417,321.635 260.5,322.5C 274.524,333.691 288.69,344.691 303,355.5C 303.667,356.5 303.667,357.5 303,358.5C 301.122,360.043 299.622,361.876 298.5,364C 297.833,364.667 297.167,364.667 296.5,364C 281.69,352.691 267.023,341.191 252.5,329.5C 250.138,332.192 247.804,334.859 245.5,337.5C 241.94,336.121 239.773,333.787 239,330.5C 245.765,322.909 251.931,314.909 257.5,306.5 Z"/></g>
<g><path style="opacity:1" fill="#fefefd" d="M 869.5,625.5 C 868.066,631.698 866.066,637.698 863.5,643.5C 849.682,641.761 837.015,636.927 825.5,629C 816.333,621.833 807.167,614.667 798,607.5C 791.67,628.15 785.337,648.817 779,669.5C 775.944,685.727 773.611,702.06 772,718.5C 771.297,762.853 771.631,807.187 773,851.5C 772.048,856.902 769.882,861.735 766.5,866C 750.778,877.133 733.778,879.466 715.5,873C 703.551,869.525 692.551,864.192 682.5,857C 680.212,854.257 678.045,851.423 676,848.5C 659.216,798.568 645.216,747.901 634,696.5C 632.08,690.161 629.246,684.327 625.5,679C 618.965,675.442 612.631,675.775 606.5,680C 596.958,686.91 589.125,695.41 583,705.5C 572.397,723.373 563.397,742.04 556,761.5C 547.983,783.216 540.983,805.216 535,827.5C 520.717,856.896 497.217,869.396 464.5,865C 439.02,858.41 429.353,842.077 435.5,816C 436.447,789.499 437.447,762.999 438.5,736.5C 438.437,727.475 437.937,718.475 437,709.5C 431.009,674.189 422.676,639.522 412,605.5C 392.597,629.578 370.097,650.078 344.5,667C 341.264,668.786 337.93,670.286 334.5,671.5C 332.706,664.118 330.706,656.785 328.5,649.5C 340.284,640.559 351.117,630.226 361,618.5C 374.843,600.316 387.51,581.316 399,561.5C 399.667,559.833 399.667,558.167 399,556.5C 392.612,539.282 387.946,521.616 385,503.5C 381.959,482.445 383.625,461.779 390,441.5C 407.115,389.355 442.615,368.855 496.5,380C 551.674,400.409 608.341,406.409 666.5,398C 683.554,393.871 700.22,388.538 716.5,382C 742.883,373.851 767.883,376.851 791.5,391C 825.452,416.848 837.619,450.681 828,492.5C 820.822,520.878 813.822,549.211 807,577.5C 826.872,594.841 847.705,610.841 869.5,625.5 Z"/></g>
<g><path style="opacity:1" fill="#bfc0bf" d="M 273.5,549.5 C 264.169,552.664 255.169,556.664 246.5,561.5C 240.178,547.522 233.345,533.856 226,520.5C 183.957,528.113 156.957,511.447 145,470.5C 139.242,434.853 151.742,407.686 182.5,389C 208.732,376.172 233.732,378.172 257.5,395C 275.014,410.526 282.514,430.026 280,453.5C 279.111,468.391 275.111,482.391 268,495.5C 264.352,500.315 260.185,504.648 255.5,508.5C 260.432,521.461 265.265,534.461 270,547.5C 271.302,548.085 272.469,548.751 273.5,549.5 Z"/></g>
<g><path style="opacity:1" fill="#a3a3a2" d="M 945.5,540.5 C 937.166,537.329 929.166,533.663 921.5,529.5C 947.659,505.509 973.992,481.676 1000.5,458C 991.951,441.733 983.284,425.566 974.5,409.5C 974.876,407.617 975.876,406.117 977.5,405C 980.433,403.729 983.099,402.062 985.5,400C 988.096,399.542 990.263,400.375 992,402.5C 1005.28,422.111 1018.94,441.444 1033,460.5C 1034.42,463.03 1034.75,465.697 1034,468.5C 1008.59,486.456 983.087,504.29 957.5,522C 953.102,527.976 949.102,534.143 945.5,540.5 Z"/></g>
<g><path style="opacity:1" fill="#1f1e1e" d="M 573.5,498.5 C 580.288,497.78 584.454,500.78 586,507.5C 587.152,514.387 584.986,519.887 579.5,524C 572.253,525.103 568.086,521.937 567,514.5C 566.152,507.872 568.319,502.538 573.5,498.5 Z"/></g>
<g><path style="opacity:1" fill="#1e1d1d" d="M 626.5,499.5 C 631.952,499.144 635.785,501.477 638,506.5C 638.826,511.589 638.492,516.589 637,521.5C 631.916,528.059 626.916,528.059 622,521.5C 617.652,512.933 619.152,505.599 626.5,499.5 Z"/></g>
<g><path style="opacity:1" fill="#576972" d="M 917.5,529.5 C 918.833,529.5 920.167,529.5 921.5,529.5C 929.166,533.663 937.166,537.329 945.5,540.5C 945.539,541.583 945.873,542.583 946.5,543.5C 942.949,561.835 940.282,580.169 938.5,598.5C 934.722,592.563 929.389,588.73 922.5,587C 916.854,586.027 911.187,585.193 905.5,584.5C 903.074,584.404 900.907,585.07 899,586.5C 898.333,591.167 898.333,595.833 899,600.5C 903.716,620.413 908.049,640.413 912,660.5C 913.466,662.325 915.299,662.825 917.5,662C 921.655,660.09 925.655,657.923 929.5,655.5C 927.303,660.756 925.303,666.089 923.5,671.5C 913.458,698.298 904.791,725.631 897.5,753.5C 890.203,777.686 883.37,802.02 877,826.5C 874.282,838.338 869.449,849.171 862.5,859C 855.812,863.323 848.479,864.656 840.5,863C 833.553,861.691 826.553,860.858 819.5,860.5C 818.811,859.293 818.645,857.959 819,856.5C 818.167,857.5 817.333,858.5 816.5,859.5C 805.708,856.858 796.542,851.524 789,843.5C 785.699,837.922 784.699,831.922 786,825.5C 793.968,808.227 802.968,791.56 813,775.5C 829.572,731.364 846.405,687.364 863.5,643.5C 866.066,637.698 868.066,631.698 869.5,625.5C 884.892,594.38 900.059,563.047 915,531.5C 915.708,530.619 916.542,529.953 917.5,529.5 Z"/></g>
<g><path style="opacity:1" fill="#576972" d="M 273.5,549.5 C 274.167,549.5 274.833,549.5 275.5,549.5C 293.183,582.868 310.85,616.201 328.5,649.5C 330.706,656.785 332.706,664.118 334.5,671.5C 338.846,697.712 348.013,722.045 362,744.5C 370.333,756.5 378.667,768.5 387,780.5C 391.469,787.771 395.135,795.438 398,803.5C 400.313,814.041 397.146,822.541 388.5,829C 379.506,834.496 369.839,838.329 359.5,840.5C 356.303,840.973 353.137,841.639 350,842.5C 348.605,842.22 347.438,841.553 346.5,840.5C 339.121,825.741 331.787,811.075 324.5,796.5C 312.296,769.065 299.796,741.731 287,714.5C 283.523,703.904 280.356,693.238 277.5,682.5C 279.735,682.795 281.735,682.461 283.5,681.5C 294.176,679.246 303.343,674.246 311,666.5C 311.667,663.833 311.667,661.167 311,658.5C 301.363,639.221 290.53,620.721 278.5,603C 276.167,602.333 273.833,602.333 271.5,603C 265.217,605.63 259.883,609.463 255.5,614.5C 249.906,599.221 244.572,583.721 239.5,568C 240.538,564.475 242.871,562.308 246.5,561.5C 255.169,556.664 264.169,552.664 273.5,549.5 Z"/></g>
<g><path style="opacity:1" fill="#212020" d="M 666.5,558.5 C 668.5,558.5 670.5,558.5 672.5,558.5C 668.068,579.2 658.068,596.7 642.5,611C 618.234,626.652 594.234,626.319 570.5,610C 555.864,596.569 546.531,580.069 542.5,560.5C 544.792,560.244 546.959,560.577 549,561.5C 552.672,577.481 560.172,591.314 571.5,603C 589.788,617.873 609.788,620.54 631.5,611C 645.65,601.839 655.817,589.339 662,573.5C 663.81,568.572 665.31,563.572 666.5,558.5 Z"/></g>
<g><path style="opacity:1" fill="#fdfefd" d="M 938.5,598.5 C 946.19,605.878 950.024,614.878 950,625.5C 948.476,630.882 946.142,635.882 943,640.5C 938.663,645.669 934.163,650.669 929.5,655.5C 925.655,657.923 921.655,660.09 917.5,662C 915.299,662.825 913.466,662.325 912,660.5C 908.049,640.413 903.716,620.413 899,600.5C 898.333,595.833 898.333,591.167 899,586.5C 900.907,585.07 903.074,584.404 905.5,584.5C 911.187,585.193 916.854,586.027 922.5,587C 929.389,588.73 934.722,592.563 938.5,598.5 Z"/></g>
<g><path style="opacity:1" fill="#fefefd" d="M 283.5,681.5 C 281.167,681.5 278.833,681.5 276.5,681.5C 262.446,673.775 252.279,662.442 246,647.5C 242.416,634.43 245.583,623.43 255.5,614.5C 259.883,609.463 265.217,605.63 271.5,603C 273.833,602.333 276.167,602.333 278.5,603C 290.53,620.721 301.363,639.221 311,658.5C 311.667,661.167 311.667,663.833 311,666.5C 303.343,674.246 294.176,679.246 283.5,681.5 Z"/></g>
<g><path style="opacity:1" fill="#da9a96" d="M 863.5,643.5 C 846.405,687.364 829.572,731.364 813,775.5C 802.968,791.56 793.968,808.227 786,825.5C 784.699,831.922 785.699,837.922 789,843.5C 796.542,851.524 805.708,856.858 816.5,859.5C 817.333,858.5 818.167,857.5 819,856.5C 818.645,857.959 818.811,859.293 819.5,860.5C 733.293,933.22 634.626,958.387 523.5,936C 459.019,920.285 404.353,888.452 359.5,840.5C 369.839,838.329 379.506,834.496 388.5,829C 397.146,822.541 400.313,814.041 398,803.5C 395.135,795.438 391.469,787.771 387,780.5C 378.667,768.5 370.333,756.5 362,744.5C 348.013,722.045 338.846,697.712 334.5,671.5C 337.93,670.286 341.264,668.786 344.5,667C 370.097,650.078 392.597,629.578 412,605.5C 422.676,639.522 431.009,674.189 437,709.5C 437.937,718.475 438.437,727.475 438.5,736.5C 437.447,762.999 436.447,789.499 435.5,816C 429.353,842.077 439.02,858.41 464.5,865C 497.217,869.396 520.717,856.896 535,827.5C 540.983,805.216 547.983,783.216 556,761.5C 563.397,742.04 572.397,723.373 583,705.5C 589.125,695.41 596.958,686.91 606.5,680C 612.631,675.775 618.965,675.442 625.5,679C 629.246,684.327 632.08,690.161 634,696.5C 645.216,747.901 659.216,798.568 676,848.5C 678.045,851.423 680.212,854.257 682.5,857C 692.551,864.192 703.551,869.525 715.5,873C 733.778,879.466 750.778,877.133 766.5,866C 769.882,861.735 772.048,856.902 773,851.5C 771.631,807.187 771.297,762.853 772,718.5C 773.611,702.06 775.944,685.727 779,669.5C 785.337,648.817 791.67,628.15 798,607.5C 807.167,614.667 816.333,621.833 825.5,629C 837.015,636.927 849.682,641.761 863.5,643.5 Z"/></g>
<g><path style="opacity:1" fill="#d29895" d="M 923.5,671.5 C 918.616,700.148 909.949,727.481 897.5,753.5C 904.791,725.631 913.458,698.298 923.5,671.5 Z"/></g>
<g><path style="opacity:1" fill="#d59b97" d="M 276.5,681.5 C 278.833,681.5 281.167,681.5 283.5,681.5C 281.735,682.461 279.735,682.795 277.5,682.5C 280.356,693.238 283.523,703.904 287,714.5C 299.796,741.731 312.296,769.065 324.5,796.5C 300.579,761.636 284.579,723.303 276.5,681.5 Z"/></g>
<g><path style="opacity:1" fill="#1c1c1c" d="M 899.5,859.5 C 909.85,858.842 918.517,862.342 925.5,870C 922.992,873.338 920.325,876.505 917.5,879.5C 914.978,877.144 912.312,874.977 909.5,873C 905.22,870.523 901.72,871.356 899,875.5C 898.333,877.5 898.333,879.5 899,881.5C 912.559,893.026 926.392,904.193 940.5,915C 948.565,915.609 951.398,912.109 949,904.5C 944.994,901.324 941.16,897.991 937.5,894.5C 939.592,891.319 941.925,888.319 944.5,885.5C 951.809,889.642 957.642,895.309 962,902.5C 963.464,916.917 957.13,925.584 943,928.5C 939.681,928.212 936.515,927.379 933.5,926C 918.712,914.881 904.212,903.381 890,891.5C 884.156,883.452 884.156,875.452 890,867.5C 892.772,864.217 895.939,861.55 899.5,859.5 Z"/></g>
<g><path style="opacity:1" fill="#1c1c1b" d="M 335.5,885.5 C 343.348,890.167 350.514,895.834 357,902.5C 361.65,909.649 361.317,916.649 356,923.5C 351.613,930.947 345.113,935.281 336.5,936.5C 338.253,942.22 337.419,947.553 334,952.5C 330.114,959.386 324.614,964.553 317.5,968C 309.798,969.484 303.131,967.484 297.5,962C 292.833,958 288.167,954 283.5,950C 301.046,928.626 318.38,907.126 335.5,885.5 Z"/></g>
<g><path style="opacity:1" fill="#1d1c1c" d="M 874.5,887.5 C 895.576,905.736 916.242,924.569 936.5,944C 933.977,948.205 930.644,951.205 926.5,953C 906.667,934.5 886.833,916 867,897.5C 866.333,896.833 866.333,896.167 867,895.5C 869.705,892.964 872.205,890.297 874.5,887.5 Z"/></g>
<g><path style="opacity:1" fill="#1d1c1c" d="M 861.5,901.5 C 881.108,921.448 900.108,942.115 918.5,963.5C 915.192,966.471 911.859,969.471 908.5,972.5C 891.752,961.376 874.919,950.376 858,939.5C 857.333,940.167 857.333,940.833 858,941.5C 870.899,954.976 883.566,968.643 896,982.5C 893.912,985.614 891.245,988.614 888,991.5C 869.351,970.684 850.518,950.017 831.5,929.5C 835.504,925.663 839.671,921.996 844,918.5C 857.752,927.443 871.585,935.943 885.5,944C 875.45,932.739 865.283,921.572 855,910.5C 854.251,909.365 854.417,908.365 855.5,907.5C 857.854,905.812 859.854,903.812 861.5,901.5 Z"/></g>
<g><path style="opacity:1" fill="#d1e2df" d="M 338.5,902.5 C 343.71,904.51 346.21,908.176 346,913.5C 343.528,917.966 340.362,921.799 336.5,925C 331.861,925.348 328.195,923.514 325.5,919.5C 330.085,913.983 334.418,908.317 338.5,902.5 Z"/></g>
<g><path style="opacity:1" fill="#1d1c1c" d="M 370.5,913.5 C 381.168,919.167 391.168,925.834 400.5,933.5C 398.748,936.672 396.748,939.672 394.5,942.5C 388.199,938.697 382.032,934.697 376,930.5C 371.456,936.424 367.289,942.591 363.5,949C 367.82,952.973 372.487,956.639 377.5,960C 375.457,963.253 373.29,966.42 371,969.5C 366.487,966.244 361.82,963.244 357,960.5C 355.739,960.759 354.739,961.426 354,962.5C 350.167,968.333 346.333,974.167 342.5,980C 348.833,984.333 355.167,988.667 361.5,993C 359.045,996.078 356.711,999.244 354.5,1002.5C 344.39,996.128 334.723,989.295 325.5,982C 340.38,959.069 355.38,936.236 370.5,913.5 Z"/></g>
<g><path style="opacity:1" fill="#d3e4e1" d="M 316.5,929.5 C 322.708,931.196 325.542,935.196 325,941.5C 321.882,946.286 318.382,950.786 314.5,955C 309.159,955.501 304.826,953.501 301.5,949C 306.715,942.624 311.715,936.124 316.5,929.5 Z"/></g>
<g><path style="opacity:1" fill="#1d1c1c" d="M 825.5,932.5 C 827.193,933.475 828.693,934.808 830,936.5C 844.615,956.783 859.615,976.783 875,996.5C 875.982,997.759 876.315,999.092 876,1000.5C 873,1002.83 870,1005.17 867,1007.5C 850.333,985.5 833.667,963.5 817,941.5C 816.333,940.833 816.333,940.167 817,939.5C 820.023,937.302 822.856,934.969 825.5,932.5 Z"/></g>
<g><path style="opacity:1" fill="#1c1c1c" d="M 407.5,939.5 C 416.248,939.47 423.414,942.803 429,949.5C 432.673,957.613 431.839,965.28 426.5,972.5C 422.799,970.988 419.466,968.988 416.5,966.5C 421.569,959.798 420.235,955.131 412.5,952.5C 406.32,954.953 403.653,959.62 404.5,966.5C 405.408,973.728 407.242,980.728 410,987.5C 412.24,998.838 409.407,1008.67 401.5,1017C 390.238,1023.82 380.404,1021.99 372,1011.5C 368.299,1003.17 368.966,995.17 374,987.5C 378.586,987.034 382.419,988.701 385.5,992.5C 383.746,995.506 382.412,998.673 381.5,1002C 384.793,1009.39 389.293,1010.23 395,1004.5C 396.348,1001.29 397.182,997.956 397.5,994.5C 396.383,987.647 394.55,980.981 392,974.5C 388.481,958.879 393.647,947.213 407.5,939.5 Z"/></g>
<g><path style="opacity:1" fill="#1c1c1c" d="M 437.5,953.5 C 450.251,958.707 462.918,964.207 475.5,970C 474.045,973.696 472.212,977.196 470,980.5C 466.349,978.842 462.682,977.175 459,975.5C 458.5,975.833 458,976.167 457.5,976.5C 447.935,998.06 438.102,1019.39 428,1040.5C 423.986,1039.13 420.486,1037.13 417.5,1034.5C 426.83,1013.17 436.164,991.838 445.5,970.5C 441.568,968.195 437.568,965.862 433.5,963.5C 435.4,960.371 436.733,957.037 437.5,953.5 Z"/></g>
<g><path style="opacity:1" fill="#1d1c1c" d="M 794.5,954.5 C 796.017,954.511 797.184,955.177 798,956.5C 809.834,976.172 822.167,995.505 835,1014.5C 840.749,1010.71 846.582,1007.04 852.5,1003.5C 855.188,1006.36 857.521,1009.53 859.5,1013C 849.647,1019.58 839.647,1025.58 829.5,1031C 814.708,1007.92 800.042,984.751 785.5,961.5C 788.233,958.761 791.233,956.427 794.5,954.5 Z"/></g>
<g><path style="opacity:1" fill="#1d1c1c" d="M 769.5,967.5 C 777.039,967.02 783.205,969.687 788,975.5C 790.262,979.455 792.428,983.455 794.5,987.5C 790.993,989.754 787.327,991.754 783.5,993.5C 781.758,989.682 779.758,986.016 777.5,982.5C 774.326,980.031 770.993,979.864 767.5,982C 766.282,983.438 765.615,985.105 765.5,987C 772.25,1002.67 779.416,1018.17 787,1033.5C 791.251,1038.73 795.585,1038.73 800,1033.5C 800.667,1031.83 800.667,1030.17 800,1028.5C 797.754,1024.51 795.921,1020.34 794.5,1016C 797.593,1013.9 800.926,1012.06 804.5,1010.5C 808.845,1016.52 811.511,1023.19 812.5,1030.5C 811.551,1041.51 805.551,1048.01 794.5,1050C 787.891,1050.78 782.391,1048.62 778,1043.5C 768.583,1026 760.25,1008 753,989.5C 751.67,982.655 753.836,977.155 759.5,973C 762.767,970.87 766.1,969.037 769.5,967.5 Z"/></g>
<g><path style="opacity:1" fill="#1c1c1c" d="M 493.5,976.5 C 501.574,978.691 509.574,981.191 517.5,984C 524.335,986.672 527.669,991.672 527.5,999C 523.686,1016.76 518.852,1034.26 513,1051.5C 508.606,1062.11 500.773,1065.95 489.5,1063C 482.901,1060.85 476.235,1059.02 469.5,1057.5C 477.098,1030.37 485.098,1003.37 493.5,976.5 Z"/></g>
<g><path style="opacity:1" fill="#1c1b1b" d="M 536.5,989.5 C 548.191,991.705 559.858,994.038 571.5,996.5C 571.406,1000.14 570.739,1003.64 569.5,1007C 562.162,1006.86 554.996,1005.69 548,1003.5C 545.082,1010.92 543.916,1018.58 544.5,1026.5C 549.823,1028.06 555.156,1029.56 560.5,1031C 559.46,1034.4 558.794,1037.9 558.5,1041.5C 552.201,1040.37 545.868,1039.37 539.5,1038.5C 538.868,1045.79 537.534,1052.96 535.5,1060C 535.833,1060.83 536.167,1061.67 536.5,1062.5C 543.347,1064.6 550.347,1065.94 557.5,1066.5C 556.514,1070.44 555.848,1074.44 555.5,1078.5C 543.76,1076.49 532.093,1074.15 520.5,1071.5C 525.74,1044.16 531.073,1016.83 536.5,989.5 Z"/></g>
<g><path style="opacity:1" fill="#1d1c1c" d="M 707.5,991.5 C 708.833,991.5 710.167,991.5 711.5,991.5C 717.653,1014.45 723.653,1037.45 729.5,1060.5C 736.068,1058.52 742.735,1056.86 749.5,1055.5C 751.636,1056.42 752.802,1058.09 753,1060.5C 753.346,1062.22 753.846,1063.88 754.5,1065.5C 743.592,1068.98 732.592,1072.31 721.5,1075.5C 713.533,1049.1 705.867,1022.6 698.5,996C 701.208,993.825 704.208,992.325 707.5,991.5 Z"/></g>
<g><path style="opacity:1" fill="#d3e4e1" d="M 502.5,991.5 C 506.65,992.492 510.483,994.159 514,996.5C 514.667,998.5 514.667,1000.5 514,1002.5C 509.667,1017.17 505.333,1031.83 501,1046.5C 498.928,1051.14 495.428,1052.64 490.5,1051C 488.349,1050.74 486.682,1049.74 485.5,1048C 491.093,1029.13 496.759,1010.29 502.5,991.5 Z"/></g>
<g><path style="opacity:1" fill="#1d1d1c" d="M 599.5,1044.5 C 599.372,1046.65 599.872,1048.65 601,1050.5C 601.494,1048.87 601.66,1047.2 601.5,1045.5C 603.002,1030.81 604.669,1016.15 606.5,1001.5C 623.833,1001.5 641.167,1001.5 658.5,1001.5C 658.5,1005.17 658.5,1008.83 658.5,1012.5C 655.287,1012.19 652.287,1012.52 649.5,1013.5C 648.167,1013.5 646.833,1013.5 645.5,1013.5C 646.024,1037.5 646.357,1061.5 646.5,1085.5C 642.167,1085.5 637.833,1085.5 633.5,1085.5C 633.611,1061.49 633.278,1037.49 632.5,1013.5C 627.833,1013.5 623.167,1013.5 618.5,1013.5C 618.664,1010.81 618.497,1008.15 618,1005.5C 614.833,1032.17 611.666,1058.84 608.5,1085.5C 603.833,1085.17 599.167,1084.83 594.5,1084.5C 592.276,1063.76 589.442,1043.1 586,1022.5C 583.417,1042.17 580.917,1061.83 578.5,1081.5C 574.452,1081.61 570.452,1081.27 566.5,1080.5C 569.915,1052.84 573.249,1025.18 576.5,997.5C 582.172,997.76 587.839,998.093 593.5,998.5C 595.56,1013.83 597.56,1029.16 599.5,1044.5 Z"/></g>
<g><path style="opacity:1" fill="#1d1c1c" d="M 678.5,997.5 C 681.079,997.083 683.246,997.75 685,999.5C 692.866,1025.6 701.032,1051.6 709.5,1077.5C 705.357,1078.73 701.19,1079.73 697,1080.5C 694.803,1075.74 693.303,1070.74 692.5,1065.5C 686.833,1066.17 681.167,1066.83 675.5,1067.5C 675.5,1072.83 675.5,1078.17 675.5,1083.5C 671.5,1083.83 667.5,1084.17 663.5,1084.5C 663.963,1056.5 664.463,1028.5 665,1000.5C 669.588,999.447 674.088,998.447 678.5,997.5 Z"/></g>
<g><path style="opacity:1" fill="#4d5150" d="M 658.5,1001.5 C 659.483,1005.3 659.817,1009.3 659.5,1013.5C 656.167,1013.5 652.833,1013.5 649.5,1013.5C 652.287,1012.52 655.287,1012.19 658.5,1012.5C 658.5,1008.83 658.5,1005.17 658.5,1001.5 Z"/></g>
<g><path style="opacity:1" fill="#d0e2df" d="M 677.5,1017.5 C 681.131,1028.9 684.465,1040.4 687.5,1052C 686.263,1055.04 683.93,1056.21 680.5,1055.5C 679.167,1055.5 677.833,1055.5 676.5,1055.5C 676.171,1042.66 676.505,1029.99 677.5,1017.5 Z"/></g>
<g><path style="opacity:1" fill="#676e6c" d="M 599.5,1044.5 C 600.167,1044.83 600.833,1045.17 601.5,1045.5C 601.66,1047.2 601.494,1048.87 601,1050.5C 599.872,1048.65 599.372,1046.65 599.5,1044.5 Z"/></g>
<g><path style="opacity:1" fill="#8e9896" d="M 677.5,1017.5 C 676.505,1029.99 676.171,1042.66 676.5,1055.5C 677.833,1055.5 679.167,1055.5 680.5,1055.5C 679.081,1056.45 677.415,1056.78 675.5,1056.5C 675.333,1042.5 675.5,1028.5 676,1014.5C 677.039,1015.24 677.539,1016.24 677.5,1017.5 Z"/></g>
</svg>
